<?xml version="1.0" encoding="UTF-8" standalone="yes"?>
<!-- Created with qrencode 4.1.1 (https://fukuchi.org/works/qrencode/index.html) -->
<svg width="3.07cm" height="3.07cm" viewBox="0 0 29 29" preserveAspectRatio="none" version="1.1" xmlns="http://www.w3.org/2000/svg">
	<g id="QRcode">
		<rect x="0" y="0" width="29" height="29" fill="#ffffff"/>
		<path style="stroke:#000000" transform="translate(0,0.5)" d="M0,0h1M1,0h1M2,0h1M3,0h1M4,0h1M5,0h1M6,0h1M8,0h1M10,0h1M12,0h1M13,0h1M14,0h1M15,0h1M17,0h1M18,0h1M22,0h1M23,0h1M24,0h1M25,0h1M26,0h1M27,0h1M28,0h1M0,1h1M6,1h1M8,1h1M10,1h1M11,1h1M12,1h1M13,1h1M14,1h1M15,1h1M18,1h1M19,1h1M20,1h1M22,1h1M28,1h1M0,2h1M2,2h1M3,2h1M4,2h1M6,2h1M8,2h1M9,2h1M13,2h1M14,2h1M22,2h1M24,2h1M25,2h1M26,2h1M28,2h1M0,3h1M2,3h1M3,3h1M4,3h1M6,3h1M9,3h1M10,3h1M11,3h1M14,3h1M15,3h1M17,3h1M22,3h1M24,3h1M25,3h1M26,3h1M28,3h1M0,4h1M2,4h1M3,4h1M4,4h1M6,4h1M8,4h1M10,4h1M12,4h1M13,4h1M15,4h1M18,4h1M19,4h1M22,4h1M24,4h1M25,4h1M26,4h1M28,4h1M0,5h1M6,5h1M9,5h1M10,5h1M13,5h1M14,5h1M22,5h1M28,5h1M0,6h1M1,6h1M2,6h1M3,6h1M4,6h1M5,6h1M6,6h1M8,6h1M10,6h1M12,6h1M14,6h1M16,6h1M18,6h1M20,6h1M22,6h1M23,6h1M24,6h1M25,6h1M26,6h1M27,6h1M28,6h1M10,7h1M11,7h1M12,7h1M14,7h1M18,7h1M20,7h1M0,8h1M3,8h1M4,8h1M5,8h1M6,8h1M7,8h1M8,8h1M11,8h1M13,8h1M14,8h1M15,8h1M16,8h1M17,8h1M19,8h1M21,8h1M24,8h1M26,8h1M27,8h1M28,8h1M0,9h1M2,9h1M3,9h1M7,9h1M14,9h1M19,9h1M23,9h1M24,9h1M26,9h1M27,9h1M0,10h1M1,10h1M4,10h1M6,10h1M7,10h1M8,10h1M11,10h1M12,10h1M14,10h1M17,10h1M21,10h1M22,10h1M23,10h1M24,10h1M26,10h1M1,11h1M3,11h1M5,11h1M8,11h1M9,11h1M12,11h1M14,11h1M15,11h1M17,11h1M18,11h1M20,11h1M23,11h1M25,11h1M28,11h1M2,12h1M5,12h1M6,12h1M7,12h1M9,12h1M10,12h1M11,12h1M13,12h1M14,12h1M18,12h1M19,12h1M20,12h1M22,12h1M28,12h1M4,13h1M5,13h1M11,13h1M12,13h1M17,13h1M18,13h1M22,13h1M23,13h1M24,13h1M25,13h1M26,13h1M27,13h1M28,13h1M1,14h1M3,14h1M6,14h1M12,14h1M14,14h1M15,14h1M17,14h1M19,14h1M22,14h1M23,14h1M24,14h1M26,14h1M28,14h1M0,15h1M4,15h1M7,15h1M8,15h1M13,15h1M14,15h1M16,15h1M18,15h1M21,15h1M22,15h1M23,15h1M24,15h1M26,15h1M28,15h1M6,16h1M9,16h1M10,16h1M11,16h1M15,16h1M19,16h1M20,16h1M23,16h1M25,16h1M0,17h1M1,17h1M4,17h1M5,17h1M7,17h1M8,17h1M9,17h1M10,17h1M17,17h1M18,17h1M19,17h1M20,17h1M24,17h1M26,17h1M27,17h1M0,18h1M1,18h1M2,18h1M6,18h1M8,18h1M12,18h1M13,18h1M14,18h1M16,18h1M18,18h1M19,18h1M21,18h1M22,18h1M23,18h1M24,18h1M25,18h1M28,18h1M0,19h1M1,19h1M2,19h1M5,19h1M8,19h1M9,19h1M10,19h1M13,19h1M15,19h1M16,19h1M19,19h1M21,19h1M23,19h1M25,19h1M26,19h1M0,20h1M1,20h1M3,20h1M4,20h1M5,20h1M6,20h1M9,20h1M13,20h1M17,20h1M19,20h1M20,20h1M21,20h1M22,20h1M23,20h1M24,20h1M25,20h1M26,20h1M27,20h1M8,21h1M11,21h1M13,21h1M16,21h1M17,21h1M18,21h1M20,21h1M24,21h1M25,21h1M0,22h1M1,22h1M2,22h1M3,22h1M4,22h1M5,22h1M6,22h1M8,22h1M11,22h1M13,22h1M15,22h1M16,22h1M19,22h1M20,22h1M22,22h1M24,22h1M25,22h1M0,23h1M6,23h1M8,23h1M9,23h1M11,23h1M12,23h1M13,23h1M16,23h1M17,23h1M19,23h1M20,23h1M24,23h1M27,23h1M28,23h1M0,24h1M2,24h1M3,24h1M4,24h1M6,24h1M8,24h1M9,24h1M13,24h1M15,24h1M16,24h1M19,24h1M20,24h1M21,24h1M22,24h1M23,24h1M24,24h1M25,24h1M0,25h1M2,25h1M3,25h1M4,25h1M6,25h1M8,25h1M9,25h1M10,25h1M12,25h1M13,25h1M14,25h1M16,25h1M17,25h1M18,25h1M21,25h1M27,25h1M0,26h1M2,26h1M3,26h1M4,26h1M6,26h1M9,26h1M10,26h1M11,26h1M12,26h1M16,26h1M19,26h1M21,26h1M23,26h1M24,26h1M26,26h1M27,26h1M28,26h1M0,27h1M6,27h1M10,27h1M12,27h1M15,27h1M21,27h1M23,27h1M24,27h1M25,27h1M26,27h1M28,27h1M0,28h1M1,28h1M2,28h1M3,28h1M4,28h1M5,28h1M6,28h1M8,28h1M10,28h1M12,28h1M17,28h1M18,28h1M19,28h1M20,28h1M21,28h1M23,28h1M24,28h1"/>
	</g>
</svg>
